PathFileType	4	(X/Y/Z)	c:/Users/goper/Files/vsCode/490R/osim_files/A01/A01_PWS_06.trc
DataRate	CameraRate	NumFrames	NumMarkers	Units                	OrigDataRate	OrigDataStartFrame	OrigNumFrames
120.00	120.00	6	36	mm	120.0	426	1135
                Frame#	Time	Mobility_markerset:LPSIS			Mobility_markerset:LASIS			Mobility_markerset:LTH1			Mobility_markerset:LTH2			Mobility_markerset:LTH3			Mobility_markerset:LTH4			Mobility_markerset:LLFE			Mobility_markerset:LMFE			Mobility_markerset:LSH1			Mobility_markerset:LSH2			Mobility_markerset:LSH3			Mobility_markerset:LSH4			Mobility_markerset:LLMAL			Mobility_markerset:LMMAL			Mobility_markerset:LCAL			Mobility_markerset:LMTP5			Mobility_markerset:LTOE			Mobility_markerset:LMTP1			Mobility_markerset:RPSIS			Mobility_markerset:RASIS			Mobility_markerset:RTH1			Mobility_markerset:RTH2			Mobility_markerset:RTH3			Mobility_markerset:RTH4			Mobility_markerset:RLFE			Mobility_markerset:RMFE			Mobility_markerset:RSH1			Mobility_markerset:RSH2			Mobility_markerset:RSH3			Mobility_markerset:RSH4			Mobility_markerset:RLMAL			Mobility_markerset:RMMAL			Mobility_markerset:RCAL			Mobility_markerset:RMTP1			Mobility_markerset:RTOE			Mobility_markerset:RMTP5		
		X1	Y1	Z1	X2	Y2	Z2	X3	Y3	Z3	X4	Y4	Z4	X5	Y5	Z5	X6	Y6	Z6	X7	Y7	Z7	X8	Y8	Z8	X9	Y9	Z9	X10	Y10	Z10	X11	Y11	Z11	X12	Y12	Z12	X13	Y13	Z13	X14	Y14	Z14	X15	Y15	Z15	X16	Y16	Z16	X17	Y17	Z17	X18	Y18	Z18	X19	Y19	Z19	X20	Y20	Z20	X21	Y21	Z21	X22	Y22	Z22	X23	Y23	Z23	X24	Y24	Z24	X25	Y25	Z25	X26	Y26	Z26	X27	Y27	Z27	X28	Y28	Z28	X29	Y29	Z29	X30	Y30	Z30	X31	Y31	Z31	X32	Y32	Z32	X33	Y33	Z33	X34	Y34	Z34	X35	Y35	Z35	X36	Y36	Z36

426	3.54167	0.00000	0.00000	0.00000	0.00000	0.00000	0.00000	0.00000	0.00000	0.00000	0.00000	0.00000	0.00000	0.00000	0.00000	0.00000	0.00000	0.00000	0.00000	0.00000	0.00000	0.00000	0.00000	0.00000	0.00000	0.00000	0.00000	0.00000	0.00000	0.00000	0.00000	0.00000	0.00000	0.00000	0.00000	0.00000	0.00000	0.00000	0.00000	0.00000	0.00000	0.00000	0.00000	0.00000	0.00000	0.00000	0.00000	0.00000	0.00000	0.00000	0.00000	0.00000	0.00000	0.00000	0.00000	0.00000	0.00000	0.00000	0.00000	0.00000	0.00000	0.00000	0.00000	0.00000	0.00000	0.00000	0.00000	0.00000	0.00000	0.00000	0.00000	0.00000	0.00000	0.00000	0.00000	0.00000	0.00000	0.00000	0.00000	0.00000	0.00000	0.00000	0.00000	0.00000	0.00000	0.00000	0.00000	0.00000	0.00000	0.00000	0.00000	0.00000	0.00000	0.00000	0.00000	0.00000	0.00000	0.00000	0.00000	0.00000	0.00000	0.00000	0.00000	0.00000	0.00000	0.00000	0.00000	0.00000	0.00000
427	3.55000	1408.76758	1017.26031	396.07614	1160.42517	998.02747	459.38586	1173.75647	676.84912	517.98596	1151.42700	636.13477	507.62442	1120.13660	702.34967	507.92758	1107.07703	660.45441	496.14407	1087.62109	541.72522	462.12045	1086.84167	546.49957	323.55325	1090.55298	372.79123	457.82559	1082.13928	328.33942	461.78699	1029.51440	380.95111	450.21259	1029.48035	335.06332	452.55267	1014.43658	89.73364	443.18579	1031.81030	86.89866	364.08850	1091.70325	50.26307	411.01334	866.99182	62.78942	450.16943	850.83258	89.60918	380.16351	867.46558	73.35392	348.35034	1415.61450	1019.54059	292.87866	1189.00330	955.12183	198.12880	1401.21692	659.30786	150.79509	1401.30969	615.98926	158.21393	1338.60107	650.80823	148.80469	1349.39844	609.71021	155.31444	1397.01257	468.68292	198.18187	1380.63904	481.90085	318.44559	1587.98792	353.92447	194.90910	1612.13074	316.06049	196.12637	1539.67285	316.62411	192.49159	1568.79919	282.18634	194.61424	1697.01123	156.37724	228.10690	1667.71301	160.60522	312.63339	1758.22839	157.39722	279.58911	1591.66956	45.35569	323.46555	1559.49744	54.45060	279.71036	1613.23657	39.83263	210.39903
428	3.55833	1396.31519	1018.17078	396.98605	1148.15906	998.83148	459.79532	1164.99658	677.37085	519.69141	1141.57715	636.40961	509.08270	1110.38831	702.67584	509.61386	1096.80920	660.34955	497.54361	1079.20801	541.47168	463.74725	1078.17371	546.63281	325.19617	1084.65283	372.58270	458.98587	1075.25928	327.00226	462.25720	1023.34991	379.74805	451.41983	1024.15295	333.95435	453.63266	1012.63885	88.81139	443.25589	1030.24829	86.57576	364.47028	1090.79370	50.68004	411.04913	865.83356	59.09530	450.31622	849.03650	85.51317	380.65207	865.80865	69.67989	348.81985	1403.39062	1019.71796	293.77655	1177.03906	955.44708	199.49942	1388.04700	659.18652	151.11179	1387.94678	615.89752	158.42906	1325.16052	650.68579	148.75833	1335.70264	609.45410	155.11284	1383.18384	468.59821	197.04015	1365.62830	480.48572	318.18405	1576.33423	357.30508	194.47417	1601.17554	320.17749	195.53558	1528.85876	318.79953	191.60097	1559.49817	285.71970	193.04749	1689.95776	162.41287	227.09590	1659.40845	165.01010	310.95908	1750.19617	166.20067	278.66599	1590.58179	45.89357	323.38773	1558.51416	54.51128	279.50693	1612.00830	40.40137	210.28667
429	3.56667	1384.03052	1019.30804	397.81003	1135.13049	1000.06329	460.82248	1154.39258	678.41113	521.25806	1132.00757	637.27588	510.84561	1100.30774	703.06934	511.30429	1087.33923	660.66815	499.39111	1070.92236	541.22760	465.48627	1069.66870	546.96790	326.85425	1080.17798	373.12259	460.36584	1071.95081	327.74191	463.75763	1017.52478	378.84488	452.75803	1019.01965	332.96075	454.81479	1011.81238	88.71457	443.04568	1028.71130	86.28840	364.86465	1090.26636	51.05416	411.10764	864.60699	55.53543	450.78320	847.14264	81.84181	381.21844	864.48560	66.61398	349.42834	1391.27429	1019.96136	294.55756	1164.64551	956.06232	200.68402	1374.32068	658.71692	151.35263	1373.49524	615.09698	158.28569	1311.07703	650.49500	148.70836	1321.28833	609.17188	154.75084	1368.13928	467.94833	196.07683	1349.46484	479.15353	317.43719	1563.43408	360.70596	194.21654	1589.26477	324.22476	195.19986	0.00000	0.00000	0.00000	1547.96252	289.09387	192.12596	1681.20935	168.16031	226.28337	1650.38110	169.92009	309.66776	1740.81860	175.56007	277.83484	1589.15845	46.60766	323.36960	1557.48669	54.47992	279.30408	1610.44592	41.31153	210.14919
430	3.57500	1371.93384	1020.60034	398.50995	1128.62537	999.51483	461.46738	1145.02991	679.10742	522.99524	1123.00574	637.94824	512.77325	1090.61194	703.85175	513.08435	1077.84192	660.94537	501.27222	1062.96484	541.25397	467.28723	1061.00208	547.27063	328.59937	1073.89587	372.94949	461.44476	1065.46802	326.65784	464.24902	1011.97699	378.04236	454.19196	1014.14539	332.21744	456.02780	1010.76434	88.23258	443.27441	1027.48218	86.11174	365.22055	1089.77161	51.42067	411.11084	864.24371	53.03896	451.21927	845.87280	79.18666	381.95108	863.55249	64.32067	350.00342	1379.31689	1020.33569	295.23584	1152.70911	956.98322	202.10640	1359.47046	657.67194	151.44899	1358.51477	614.24445	157.95853	1296.45325	650.21014	148.43173	1306.24304	608.79053	154.31573	1351.89502	467.20526	194.72241	0.00000	0.00000	0.00000	1549.30481	364.13290	194.02913	1576.10278	328.40106	194.90887	1503.92395	323.40649	189.93497	1535.18567	292.24622	191.40298	1671.74121	174.59085	225.60982	1640.69629	175.31671	308.88412	1730.24072	185.51952	277.27866	1587.34058	47.78109	323.41904	1552.82532	53.39149	279.67102	1608.71301	42.93454	210.02240
431	3.58333	1360.11060	1022.05005	399.05368	1116.59534	1000.89496	462.47104	1135.67480	680.03442	524.71313	1113.76074	638.88049	514.31085	1080.90942	704.22266	514.91827	1068.30933	661.19543	502.97891	1055.09778	541.33594	468.93192	1052.75684	547.78717	329.96558	1068.18018	372.90521	462.35641	1062.59607	327.81448	465.69171	1006.48535	377.39655	455.40909	1009.37134	331.46347	457.21014	1009.84467	87.83794	443.48471	1026.33655	86.08521	365.52396	1089.27539	51.83015	411.13916	863.76453	50.78772	451.69049	845.40070	76.95181	382.56076	862.91699	62.45138	350.38776	1367.54224	1020.71881	295.76266	1141.21545	958.05414	203.73355	1344.16125	656.77032	151.22818	1342.69702	612.93219	157.72076	1281.30347	649.76556	148.07391	1290.56555	608.20618	153.76527	1334.34021	466.01831	193.39352	1314.34253	476.03119	315.65076	1534.19617	367.42529	193.68233	1561.85205	332.38986	194.67915	1489.92444	325.57776	189.02211	1522.27612	295.52194	190.47466	1661.29785	181.56349	225.31673	1629.84717	181.28571	308.19495	1718.49902	196.12404	276.96234	1584.92688	49.36891	323.66620	1552.23352	53.89473	278.94052	1606.50354	45.40938	209.80020
